<?xml version="1.0" encoding="utf-8"?>
<!-- Generator: Adobe Illustrator 27.8.1, SVG Export Plug-In . SVG Version: 6.00 Build 0)  -->
<svg version="1.1" id="Layer_1" xmlns="http://www.w3.org/2000/svg" xmlns:xlink="http://www.w3.org/1999/xlink" x="0px" y="0px"
	 viewBox="0 0 1000 1000" style="enable-background:new 0 0 1000 1000;" xml:space="preserve">
<g>
	<path d="M781.18,492.07h-12.2c-3.1,0-5.63,2.53-5.63,5.63v49.41c0,3.11,2.52,5.63,5.63,5.63h12.2c3.1,0,5.63-2.52,5.63-5.63V497.7
		C786.81,494.59,784.28,492.07,781.18,492.07 M779.3,545.86h-8.44v-46.91h8.44V545.86z"/>
	<path d="M781.02,564.93h-11.88c-3.1,0-5.63,2.53-5.63,5.63v8.75h7.51v-7.5h8.13v14.38c0,1.38-1.12,2.5-2.5,2.5h-3.13v7.51h3.13
		c1.38,0,2.5,1.12,2.5,2.5v20.01h-8.13v-7.51h-7.51v8.76c0,3.1,2.53,5.63,5.63,5.63h11.88c3.1,0,5.63-2.53,5.63-5.63V598.7
		c0-2.37-0.83-4.54-2.21-6.25c1.38-1.72,2.21-3.89,2.21-6.25v-15.63C786.65,567.46,784.13,564.93,781.02,564.93"/>
	<path d="M744.46,492.07H733.2c-3.1,0-5.63,2.53-5.63,5.63v8.75h7.51v-7.51h7.51v5.94c0,5.32-3.6,12.14-7.07,18.73
		c-3.9,7.4-7.94,15.05-7.94,22.23v6.88h22.52v-6.88h-15c0.26-5.23,3.72-12.4,7.06-18.73c3.9-7.4,7.94-15.05,7.94-22.23v-7.19
		C750.09,494.59,747.57,492.07,744.46,492.07"/>
	<path d="M744.46,564.93H733.2c-3.1,0-5.63,2.53-5.63,5.63v8.75h7.51v-7.5h7.51v5.94c0,5.33-3.6,12.14-7.07,18.73
		c-3.9,7.4-7.94,15.05-7.94,22.23v6.88h22.52v-6.88h-15c0.26-5.23,3.72-12.4,7.06-18.73c3.9-7.4,7.94-15.05,7.94-22.23v-7.19
		C750.09,567.46,747.57,564.93,744.46,564.93"/>
	<path d="M264.99,564.93h-15.32v60.67h15.32c4.48,0,8.13-3.65,8.13-8.13v-44.4C273.12,568.58,269.47,564.93,264.99,564.93
		 M265.61,618.09c0,0.34-0.28,0.62-0.62,0.62h-7.82v-46.91h7.82c0.34,0,0.62,0.28,0.62,0.62V618.09z"/>
	<polygon points="214.56,492.07 214.56,552.74 235.2,552.74 235.2,545.86 222.07,545.86 222.07,522.71 230.83,522.71 230.83,515.83 
		222.07,515.83 222.07,498.95 235.2,498.95 235.2,492.07 	"/>
	<polygon points="213,564.93 213,571.81 221.13,571.81 221.13,625.6 228.63,625.6 228.63,571.81 236.77,571.81 236.77,564.93 	"/>
	<path d="M267.33,492.07h-11.88c-3.1,0-5.63,2.53-5.63,5.63v10.63c0,4.49,3.77,9.51,8.13,15.33c3.17,4.22,7.51,10.01,7.51,12.82
		v9.38h-8.13v-9.38h-7.5v10.63c0,3.11,2.52,5.63,5.63,5.63h11.88c3.1,0,5.63-2.52,5.63-5.63v-10.63c0-5.31-4.38-11.14-9.01-17.32
		c-2.64-3.52-6.63-8.84-6.63-10.82v-9.38h8.13v9.38h7.51V497.7C272.96,494.59,270.44,492.07,267.33,492.07"/>
	<path d="M543.3,299.11c-21.83-14.47-46.86-25.55-72.2-32.26c4.8-3.09,9.48-6.26,14.03-9.36c2.18-1.49,4.35-2.96,6.51-4.41
		c18.98-12.75,45.7-25.79,65.18-15.59c13.53,7.08,19.69,23.64,20.95,36.77c0.64,6.67,0.73,13.64,0.35,20.77
		C566.76,295.34,555.06,296.74,543.3,299.11 M437.52,349.48c-17.78,15.12-30.67,31.6-38.27,48.68c-3.62-5.76-7.4-11.34-11.08-16.74
		c-1.48-2.18-2.96-4.35-4.41-6.51c-12.75-18.98-25.8-45.7-15.59-65.18c7.08-13.53,23.64-19.69,36.78-20.96
		c1.27-0.12,2.56-0.18,3.85-0.27c3.24,0.1,6.43,0,9.56-0.31c27.8,0.14,58.98,8.26,86.74,22C480.37,319.58,456.89,333,437.52,349.48
		 M658.05,331.88c-9.43-18.02-28.29-30.74-51.33-35.02c0.47-8.65,0.37-17.14-0.42-25.34c-2.57-26.68-16.09-48.89-36.19-59.41
		c-25.66-13.44-57.43-7.66-94.43,17.19c-2.21,1.48-4.43,2.99-6.66,4.51c-17.05,11.6-34.59,23.5-52.33,25.73
		c-2.94,0.02-5.85,0.12-8.73,0.28c-0.13-0.01-0.26,0-0.39-0.01l0,0.03c-1.8,0.11-3.6,0.24-5.38,0.41
		c-26.68,2.57-48.89,16.1-59.41,36.19c-13.43,25.66-7.65,57.43,17.19,94.43c1.48,2.21,2.99,4.43,4.51,6.66
		c13.59,19.96,27.63,40.61,26,61.45l28.55,2.24c0.84-10.74-0.79-20.87-3.87-30.5l4.79,0.31c1.29-19.8,14.11-41.02,36.12-59.74
		c31.75-27.02,77.66-45.02,118.06-47.41c-4.16,19.14-11.26,38.5-20.69,56.22c4.27,1.21,8.51,2.47,12.63,4.17
		c4.18,1.73,8.08,3.72,11.58,6.61c0.59,0.5,1.11,1.08,1.63,1.64c11.19-21.19,19.37-44.29,23.84-67.17
		c11.47,2.53,23.71,8.67,29.53,19.8c10.2,19.48-2.85,46.19-15.59,65.18c-1.44,2.16-2.92,4.33-4.41,6.51
		c-15.6,22.93-33.29,48.93-30.88,79.8l28.56-2.24c-1.63-20.84,12.42-41.48,26-61.45c1.52-2.23,3.03-4.45,4.51-6.66
		C665.7,389.31,671.49,357.53,658.05,331.88"/>
	<path d="M452.65,751.81L452.65,751.81c8.14,0,14.74-6.6,14.74-14.74v-54.25l-29.48-29.56v83.82
		C437.91,745.21,444.51,751.81,452.65,751.81"/>
	<path d="M381.35,676.14h-0.07c-5.12,0-9.28-4.13-9.28-9.26c0.01-62.43,0.02-137.11,0.05-186.99c0-8.16-6.61-14.76-14.78-14.76
		c-8.16,0-14.78,6.62-14.78,14.78l0.02,186.97c0,21.43,17.38,38.81,38.81,38.81c21.43,0,38.81-17.37,38.81-38.8l0.01-31.94
		l-29.59-29.59c0.03,14.09,0.06,20.88,0.07,61.51C390.63,671.99,386.48,676.14,381.35,676.14"/>
	<path d="M610.47,474.48c-0.26-6.6-0.48-13.04-1.11-19.11c-2.58-24.58-9.72-44.28-21.86-59.13c-3.04-3.72-6.3-7.08-9.95-10.33
		c-14.22-12.66-33.52-20.53-57.28-23.71c-11.8-1.58-25.78-2.15-38.17-0.74c-12.1,1.38-23,4.01-32.82,7.68
		c-9.81,3.67-18.74,8.08-26.94,13.55c-8.1,5.4-15.49,11.74-21.18,19.32c-2.93,3.91-5.45,7.95-7.35,12.86
		c-1.94,4.98-2.67,10.6-3.18,17.1c-0.18,2.31-0.23,98.21-0.24,135.82c0,9.56,3.8,18.71,10.56,25.47l70.48,70.46
		c8.99,9.01,14.04,21.22,14.04,33.95v86.02c0,8.14,6.6,14.74,14.74,14.74c8.14,0,14.74-6.6,14.74-14.74v-98.28
		c0-12.74-5.06-24.96-14.07-33.97L430.46,581c-6.76-6.76-10.56-15.93-10.55-25.49c0.02-25.12,0.06-60.51,0.09-77.03
		c0-3.55,4-5.66,6.92-3.63c3.05,2.1,6.45,4.27,8.83,5.66c1.35,0.79,2.17,2.24,2.17,3.81v83.42l29.48,29.56V496.94
		c0-2.7,2.4-4.8,5.07-4.37c2.96,0.48,5.94,0.85,8.94,1.13c2.3,0.21,4.08,2.1,4.08,4.41v117.25l29.48,29.41V496.43
		c0-2.16,1.56-3.97,3.69-4.35c3-0.54,5.98-1.17,8.94-1.91c2.78-0.69,5.45,1.43,5.45,4.29v104.03L562.51,569
		c0,0-0.02-103.27-0.06-107.97c-0.03-3.67-0.38-8.02-4.97-8.94c-1.74-0.35-3.54,0.02-5.16,0.76c-38.67,17.52-85.71,16.1-122.23-6.27
		c-28.57-17.5,11.5-42.18,27.42-48.46c33.92-13.38,86.19-12.51,109.56,20.04c5.62,7.83,9.36,17.51,11.49,29.01
		c1.05,5.67,1.58,11.94,1.91,18.31c0.1,1.96,0.24,56.42,0.31,89.99c0.02,9.58-3.77,18.76-10.55,25.53l-26.64,26.64
		c-6.76,6.76-10.55,15.92-10.55,25.48v104.54c0,8.14,6.6,14.74,14.74,14.74c8.14,0,14.74-6.6,14.74-14.74v-92.33
		c0-9.56,3.8-18.72,10.55-25.48l26.79-26.79c6.75-6.75,10.54-15.89,10.55-25.43C610.44,538.22,610.51,475.37,610.47,474.48"/>
	<path d="M628.64,479.9l0.02,187.06c0,5.06-4.1,9.17-9.16,9.17h-0.02c-5.06,0-9.16-4.08-9.16-9.14c0.02-40.63,0.05-47.54,0.07-61.64
		l-29.59,29.59l0.02,32.09c0,21.35,17.31,38.65,38.66,38.65c21.35,0,38.66-17.3,38.66-38.65c0.01-62.39,0.03-137.23,0.05-187.14
		c0-8.16-6.62-14.76-14.78-14.76C635.25,465.13,628.64,471.74,628.64,479.9"/>
	<path d="M542.13,427.87c0,23.4-18.97,42.36-42.36,42.36c-23.4,0-42.36-18.97-42.36-42.36c0-23.4,18.97-42.36,42.36-42.36
		C523.16,385.51,542.13,404.48,542.13,427.87"/>
</g>
</svg>
