<?xml version="1.0" encoding="utf-8"?>
<!-- Generator: Adobe Illustrator 27.8.1, SVG Export Plug-In . SVG Version: 6.00 Build 0)  -->
<svg version="1.1" id="Layer_1" xmlns="http://www.w3.org/2000/svg" xmlns:xlink="http://www.w3.org/1999/xlink" x="0px" y="0px"
	 viewBox="0 0 1000 1000" style="enable-background:new 0 0 1000 1000;" xml:space="preserve">
<g>
	<path d="M856.59,534.8l-10.14-59.44c-0.23-1.35-1.4-2.34-2.77-2.34h-19.65c-1.55,0-2.81,1.26-2.81,2.81V621.6
		c0,1.55,1.26,2.81,2.81,2.81h14.05c1.55,0,2.81-1.26,2.81-2.81v-55.53c0-3.45,5.01-3.87,5.59-0.47l9.63,56.48
		c0.23,1.35,1.4,2.34,2.77,2.34h20.15c1.55,0,2.81-1.26,2.81-2.81V475.84c0-1.55-1.26-2.81-2.81-2.81h-14.05
		c-1.55,0-2.81,1.26-2.81,2.81v58.49C862.18,537.77,857.17,538.2,856.59,534.8"/>
	<path d="M589.22,556.16c-0.19-1.03,0.24-2.05,1.05-2.71c5.05-4.14,8.44-10.4,8.44-19.06v-5.35v-30.58
		c0-17.78-14.33-25.44-27.87-25.44h-6.45h-18.38c-1.56,0-2.82,1.26-2.82,2.81V621.6c0,1.55,1.26,2.81,2.82,2.81h15.57
		c1.55,0,2.81-1.26,2.81-2.81v-61.77h2.62c1.36,0,2.53,0.97,2.77,2.31l10.88,59.96c0.24,1.34,1.41,2.31,2.77,2.31h14.8
		c1.76,0,3.08-1.59,2.77-3.31L589.22,556.16z M564.4,540.87v-48.89c0-1.55,1.26-2.81,2.81-2.81h3.72c3.2,0,6.58,1.8,6.58,6v33.87
		v8.64c0,4.2-3.38,6-6.58,6h-3.72C565.66,543.69,564.4,542.43,564.4,540.87"/>
	<path d="M809.03,621.6v-11.03c0-1.55-1.26-2.81-2.81-2.81h-22.63c-1.55,0-2.81-1.26-2.81-2.81v-47.11c0-1.55,1.26-2.81,2.81-2.81
		h16.58c1.55,0,2.81-1.26,2.81-2.81v-11.03c0-1.55-1.26-2.82-2.81-2.82h-16.58c-1.55,0-2.81-1.26-2.81-2.81v-43.07
		c0-1.55,1.26-2.81,2.81-2.81h22.63c1.55,0,2.81-1.26,2.81-2.81v-11.03c0-1.55-1.26-2.81-2.81-2.81h-43.83
		c-1.55,0-2.81,1.26-2.81,2.81V621.6c0,1.55,1.26,2.81,2.81,2.81h43.83C807.77,624.41,809.03,623.15,809.03,621.6"/>
	<path d="M631.19,475.46l-20.03,145.76c-0.23,1.69,1.08,3.2,2.78,3.2h14.87c1.43,0,2.63-1.07,2.8-2.49l2.89-25.37
		c0.16-1.42,1.36-2.5,2.8-2.5h12.18c1.43,0,2.63,1.07,2.79,2.5l2.89,25.37c0.16,1.42,1.36,2.49,2.79,2.49h14.87
		c1.71,0,3.02-1.5,2.79-3.2l-20.04-145.76c-0.19-1.39-1.38-2.43-2.78-2.43h-18.8C632.58,473.02,631.39,474.06,631.19,475.46
		 M637.03,574.27l3.55-31.22c0.38-3.33,5.21-3.33,5.59,0l3.55,31.22c0.19,1.67-1.11,3.13-2.8,3.13h-7.1
		C638.15,577.4,636.84,575.94,637.03,574.27"/>
	<path d="M511.46,529.06l18.81-52.27c0.66-1.83-0.7-3.77-2.65-3.77h-15.04c-1.22,0-2.31,0.79-2.68,1.96l-12.54,39.32
		c-0.98,3.06-5.49,2.36-5.49-0.85v-37.52c0-1.55-1.26-2.81-2.81-2.81h-15.57c-1.55,0-2.81,1.26-2.81,2.81V621.6
		c0,1.55,1.26,2.81,2.81,2.81h15.57c1.56,0,2.81-1.26,2.81-2.81v-39.21c0-0.59,0.1-1.19,0.31-1.75l2.7-7.49
		c0.95-2.64,4.75-2.41,5.39,0.32l11.31,48.77c0.3,1.28,1.43,2.18,2.74,2.18h15.99c1.82,0,3.16-1.7,2.74-3.47l-21.66-90.27
		C511.24,530.14,511.28,529.58,511.46,529.06"/>
	<path d="M726.11,529.06l18.81-52.27c0.66-1.83-0.7-3.77-2.65-3.77h-15.04c-1.22,0-2.31,0.79-2.68,1.96l-12.54,39.32
		c-0.98,3.06-5.49,2.36-5.49-0.85v-37.52c0-1.55-1.26-2.81-2.81-2.81h-15.57c-1.55,0-2.81,1.26-2.81,2.81V621.6
		c0,1.55,1.26,2.81,2.81,2.81h15.57c1.55,0,2.81-1.26,2.81-2.81v-39.21c0-0.59,0.1-1.19,0.31-1.75l2.7-7.49
		c0.95-2.64,4.75-2.41,5.39,0.32l11.31,48.77c0.3,1.28,1.43,2.18,2.74,2.18h15.99c1.82,0,3.16-1.7,2.73-3.47l-21.66-90.27
		C725.9,530.14,725.93,529.58,726.11,529.06"/>
	<path d="M615.97,643.33h-10.24c-1.64,0-2.97,1.33-2.97,2.96v42.56c0,1.64,1.33,2.96,2.97,2.96h10.24c1.63,0,2.96-1.33,2.96-2.96
		v-9.16h-2.69v9.16c0,0.15-0.12,0.27-0.27,0.27h-10.24c-0.15,0-0.27-0.12-0.27-0.27v-42.56c0-0.15,0.12-0.27,0.27-0.27h10.24
		c0.15,0,0.27,0.12,0.27,0.27v9.16h2.69v-9.16C618.94,644.66,617.61,643.33,615.97,643.33"/>
	<path d="M560.82,643.32h-11.31v48.49h11.31c2.82,0,5.12-2.3,5.12-5.12v-38.26C565.94,645.62,563.65,643.32,560.82,643.32
		 M563.25,686.7c0,1.34-1.09,2.42-2.42,2.42h-8.62v-43.1h8.62c1.33,0,2.42,1.09,2.42,2.42V686.7z"/>
	<rect x="656.58" y="643.33" width="2.69" height="48.49"/>
	<polygon points="710.11,643.33 710.11,683.73 699.01,643.33 696.1,643.33 696.1,691.82 698.8,691.82 698.8,651.41 709.9,691.82 
		712.8,691.82 712.8,643.33 	"/>
	<path d="M682.94,643.33h-10.51c-1.63,0-2.96,1.33-2.96,2.96v42.56c0,1.64,1.33,2.96,2.96,2.96h10.51c1.64,0,2.97-1.33,2.97-2.96
		v-42.56C685.9,644.66,684.57,643.33,682.94,643.33 M683.21,688.85c0,0.15-0.12,0.27-0.27,0.27h-10.51c-0.15,0-0.27-0.12-0.27-0.27
		v-42.56c0-0.15,0.12-0.27,0.27-0.27h10.51c0.15,0,0.27,0.12,0.27,0.27V688.85z"/>
	<path d="M536.46,643.33h-10.51c-1.64,0-2.97,1.33-2.97,2.96v42.56c0,1.64,1.33,2.96,2.97,2.96h10.51c1.63,0,2.96-1.33,2.96-2.96
		v-42.56C539.42,644.66,538.09,643.33,536.46,643.33 M536.73,688.85c0,0.15-0.12,0.27-0.27,0.27h-10.51c-0.15,0-0.27-0.12-0.27-0.27
		v-42.56c0-0.15,0.12-0.27,0.27-0.27h10.51c0.15,0,0.27,0.12,0.27,0.27V688.85z"/>
	<polygon points="629.14,643.33 629.14,646.02 636.41,646.02 636.41,691.82 639.11,691.82 639.11,646.02 646.38,646.02 
		646.38,643.33 	"/>
	<path d="M589.88,688.85c0,0.15-0.12,0.27-0.27,0.27H579.1c-0.15,0-0.27-0.12-0.27-0.27v-45.53h-2.69v45.53
		c0,1.63,1.33,2.96,2.96,2.96h10.51c1.63,0,2.96-1.33,2.96-2.96v-45.53h-2.69V688.85z"/>
	<path d="M483.57,643.33h-13.2v48.49h2.69v-18.86h10.5c1.63,0,2.96-1.33,2.96-2.96v-23.71
		C486.54,644.65,485.21,643.33,483.57,643.33 M483.84,670c0,0.15-0.12,0.27-0.27,0.27h-10.5v-24.25h10.5c0.15,0,0.27,0.12,0.27,0.27
		V670z"/>
	<path d="M509.94,670.8c1.63,0,2.96-1.33,2.96-2.97v-21.55c0-1.63-1.33-2.96-2.96-2.96h-13.2v48.49h2.69v-45.8h10.51
		c0.15,0,0.27,0.12,0.27,0.27v21.55c0,0.15-0.12,0.27-0.27,0.27h-7.98l8.59,23.71h2.87l-7.61-21.01H509.94z"/>
	<path d="M837.28,643.32h-11.31v48.49h11.31c2.82,0,5.12-2.3,5.12-5.12v-38.26C842.4,645.62,840.1,643.32,837.28,643.32
		 M839.71,686.7c0,1.34-1.09,2.42-2.42,2.42h-8.62v-43.1h8.62c1.34,0,2.42,1.09,2.42,2.42V686.7z"/>
	<rect x="852.53" y="643.33" width="2.69" height="48.49"/>
	<path d="M878.9,643.33h-10.51c-1.64,0-2.96,1.33-2.96,2.96v42.56c0,1.64,1.33,2.96,2.96,2.96h10.51c1.63,0,2.96-1.33,2.96-2.96
		v-42.56C881.86,644.66,880.53,643.33,878.9,643.33 M879.17,688.85c0,0.15-0.12,0.27-0.27,0.27h-10.51c-0.15,0-0.27-0.12-0.27-0.27
		v-42.56c0-0.15,0.12-0.27,0.27-0.27h10.51c0.15,0,0.27,0.12,0.27,0.27V688.85z"/>
	<polygon points="771.89,643.33 771.89,646.02 779.17,646.02 779.17,691.82 781.86,691.82 781.86,646.02 789.14,646.02 
		789.14,643.33 	"/>
	<path d="M813.07,688.85c0,0.15-0.12,0.27-0.27,0.27H802.3c-0.15,0-0.27-0.12-0.27-0.27v-45.53h-2.69v45.53
		c0,1.63,1.33,2.96,2.96,2.96h10.51c1.64,0,2.96-1.33,2.96-2.96v-45.53h-2.69V688.85z"/>
	<path d="M758.73,643.33H748.5c-1.64,0-2.97,1.33-2.97,2.96v9.16c0,3.24,3.22,7.53,6.63,12.07c3.21,4.28,6.85,9.13,6.85,12.18v9.16
		c0,0.15-0.12,0.27-0.27,0.27H748.5c-0.15,0-0.27-0.12-0.27-0.27v-9.16h-2.69v9.16c0,1.64,1.33,2.96,2.97,2.96h10.24
		c1.64,0,2.96-1.33,2.96-2.96v-9.16c0-3.94-3.76-8.95-7.39-13.79c-2.99-3.99-6.08-8.11-6.08-10.45v-9.16c0-0.15,0.12-0.27,0.27-0.27
		h10.24c0.15,0,0.27,0.12,0.27,0.27v9.16h2.69v-9.16C761.7,644.66,760.37,643.33,758.73,643.33"/>
	<path d="M266.88,354.79c-15.64-10.37-33.58-18.31-51.74-23.12c3.44-2.21,6.79-4.49,10.06-6.71c1.56-1.07,3.12-2.12,4.66-3.16
		c13.6-9.13,32.75-18.49,46.71-11.18c9.69,5.08,14.11,16.94,15.02,26.35c0.46,4.78,0.52,9.77,0.25,14.89
		C283.7,352.09,275.31,353.09,266.88,354.79 M191.08,390.89c-12.74,10.84-21.98,22.64-27.43,34.88c-2.59-4.13-5.3-8.13-7.94-12
		c-1.07-1.56-2.12-3.12-3.16-4.67c-9.13-13.6-18.49-32.75-11.18-46.71c5.08-9.69,16.94-14.11,26.35-15.02
		c0.91-0.09,1.84-0.13,2.76-0.19c2.32,0.07,4.61,0,6.85-0.22c19.92,0.1,42.26,5.92,62.16,15.76
		C221.79,369.46,204.96,379.08,191.08,390.89 M349.11,378.27c-6.76-12.91-20.27-22.03-36.78-25.09c0.34-6.2,0.26-12.29-0.3-18.16
		c-1.84-19.12-11.53-35.04-25.93-42.57c-18.39-9.63-41.16-5.49-67.67,12.31c-1.58,1.06-3.17,2.14-4.77,3.23
		c-12.22,8.31-24.79,16.84-37.5,18.44c-2.11,0.01-4.19,0.08-6.26,0.2c-0.09-0.01-0.19,0-0.28-0.01l0,0.02
		c-1.29,0.08-2.58,0.17-3.85,0.29c-19.12,1.84-35.04,11.53-42.57,25.93c-9.63,18.39-5.48,41.15,12.32,67.66
		c1.07,1.58,2.14,3.17,3.23,4.78c9.74,14.31,19.8,29.1,18.63,44.03l20.46,1.6c0.6-7.69-0.56-14.95-2.77-21.86l3.44,0.22
		c0.92-14.19,10.11-29.39,25.88-42.81c22.75-19.36,55.65-32.26,84.6-33.98c-2.98,13.71-8.06,27.59-14.82,40.29
		c3.06,0.87,6.1,1.77,9.05,2.99c3,1.24,5.79,2.66,8.3,4.74c0.43,0.36,0.8,0.77,1.17,1.18c8.02-15.19,13.88-31.74,17.08-48.14
		c8.22,1.82,16.99,6.22,21.16,14.19c7.31,13.96-2.04,33.1-11.17,46.71c-1.04,1.55-2.09,3.1-3.16,4.67
		c-11.18,16.43-23.86,35.06-22.13,57.18l20.46-1.6c-1.17-14.93,8.9-29.73,18.63-44.03c1.09-1.6,2.17-3.19,3.23-4.77
		C354.6,419.43,358.74,396.66,349.11,378.27"/>
	<path d="M201.92,679.19L201.92,679.19c5.83,0,10.56-4.73,10.56-10.56v-38.88l-21.12-21.19v60.06
		C191.36,674.46,196.09,679.19,201.92,679.19"/>
	<path d="M150.83,624.97h-0.05c-3.67,0-6.65-2.96-6.65-6.63c0.01-44.74,0.02-98.25,0.03-134c0-5.85-4.74-10.58-10.59-10.58
		c-5.85,0-10.59,4.74-10.59,10.59L123,618.33c0,15.36,12.45,27.81,27.81,27.81c15.36,0,27.81-12.45,27.81-27.8l0.01-22.89
		l-21.2-21.2c0.02,10.1,0.04,14.96,0.05,44.08C157.48,622,154.5,624.97,150.83,624.97"/>
	<path d="M315.02,480.46c-0.19-4.73-0.34-9.34-0.8-13.69c-1.85-17.62-6.97-31.73-15.67-42.37c-2.18-2.67-4.52-5.07-7.13-7.4
		c-10.2-9.07-24.02-14.71-41.04-16.99c-8.46-1.14-18.47-1.54-27.35-0.53c-8.67,0.98-16.49,2.87-23.52,5.5
		c-7.03,2.63-13.43,5.79-19.31,9.71c-5.81,3.87-11.1,8.41-15.18,13.85c-2.1,2.8-3.9,5.69-5.27,9.22c-1.38,3.56-1.91,7.6-2.28,12.25
		c-0.13,1.66-0.16,70.37-0.17,97.33c0,6.85,2.72,13.41,7.56,18.25l50.51,50.5c6.44,6.46,10.06,15.21,10.06,24.33v61.64
		c0,5.83,4.73,10.56,10.56,10.56c5.83,0,10.56-4.73,10.56-10.56v-70.43c0-9.13-3.63-17.89-10.08-24.34l-50.47-50.48
		c-4.85-4.85-7.56-11.41-7.56-18.26c0.01-18,0.05-43.36,0.06-55.2c0-2.55,2.86-4.05,4.96-2.6c2.18,1.51,4.62,3.06,6.32,4.06
		c0.97,0.57,1.55,1.61,1.55,2.73v59.78l21.13,21.18v-71.92c0-1.94,1.72-3.44,3.63-3.13c2.12,0.34,4.26,0.61,6.4,0.81
		c1.65,0.15,2.92,1.5,2.92,3.16v84.02l21.12,21.08V496.19c0-1.55,1.12-2.85,2.64-3.12c2.15-0.39,4.29-0.84,6.41-1.37
		c1.99-0.5,3.91,1.02,3.91,3.07v74.55l21.12-21.12c0,0-0.02-74-0.04-77.37c-0.02-2.63-0.27-5.75-3.57-6.41
		c-1.25-0.25-2.54,0.02-3.7,0.54c-27.71,12.55-61.42,11.53-87.59-4.5c-20.47-12.54,8.24-30.23,19.65-34.73
		c24.31-9.59,61.77-8.96,78.51,14.36c4.03,5.61,6.7,12.55,8.23,20.79c0.75,4.06,1.13,8.55,1.37,13.12
		c0.07,1.4,0.17,40.43,0.22,64.49c0.02,6.86-2.7,13.45-7.56,18.3l-19.09,19.09c-4.84,4.84-7.56,11.41-7.56,18.26v74.91
		c0,5.83,4.73,10.56,10.56,10.56c5.83,0,10.56-4.73,10.56-10.56V602.9c0-6.85,2.72-13.41,7.56-18.26l19.2-19.2
		c4.83-4.83,7.56-11.38,7.56-18.22C314.99,526.14,315.04,481.1,315.02,480.46"/>
	<path d="M328.04,484.35l0.01,134.05c0,3.63-2.94,6.57-6.57,6.57h-0.01c-3.62,0-6.56-2.93-6.56-6.55
		c0.01-29.12,0.03-34.06,0.05-44.17l-21.2,21.2l0.01,22.99c0,15.3,12.4,27.7,27.71,27.7c15.3,0,27.71-12.4,27.71-27.7
		c0.01-44.71,0.02-98.34,0.03-134.11c0-5.85-4.74-10.58-10.59-10.58C332.78,473.76,328.04,478.5,328.04,484.35"/>
	<path d="M266.04,447.06c0,16.77-13.59,30.36-30.36,30.36s-30.36-13.59-30.36-30.36c0-16.77,13.59-30.36,30.36-30.36
		S266.04,430.3,266.04,447.06"/>
</g>
</svg>
