<?xml version="1.0" encoding="utf-8"?>
<!-- Generator: Adobe Illustrator 27.8.1, SVG Export Plug-In . SVG Version: 6.00 Build 0)  -->
<svg version="1.1" id="Layer_1" xmlns="http://www.w3.org/2000/svg" xmlns:xlink="http://www.w3.org/1999/xlink" x="0px" y="0px"
	 viewBox="0 0 1000 1000" style="enable-background:new 0 0 1000 1000;" xml:space="preserve">
<g>
	<path d="M686.56,354.37h-8.09c-2.06,0-3.73,1.67-3.73,3.73v32.76c0,2.06,1.67,3.73,3.73,3.73h8.09c2.06,0,3.73-1.67,3.73-3.73
		v-32.76C690.29,356.05,688.62,354.37,686.56,354.37 M685.32,390.04h-5.6v-31.11h5.6V390.04z"/>
	<path d="M686.46,402.69h-7.88c-2.06,0-3.73,1.67-3.73,3.73v5.8h4.98v-4.98h5.39v9.54c0,0.91-0.75,1.66-1.66,1.66h-2.07v4.98h2.07
		c0.91,0,1.66,0.75,1.66,1.66v13.27h-5.39v-4.98h-4.98v5.81c0,2.06,1.67,3.73,3.73,3.73h7.88c2.06,0,3.73-1.67,3.73-3.73v-14.1
		c0-1.57-0.55-3.01-1.47-4.15c0.91-1.14,1.47-2.58,1.47-4.15v-10.37C690.19,404.36,688.52,402.69,686.46,402.69"/>
	<path d="M662.21,354.37h-7.46c-2.06,0-3.73,1.67-3.73,3.73v5.8h4.98v-4.98h4.98v3.94c0,3.53-2.38,8.05-4.69,12.42
		c-2.59,4.91-5.27,9.98-5.27,14.74v4.56h14.93v-4.56H656c0.18-3.47,2.46-8.22,4.68-12.42c2.59-4.91,5.26-9.98,5.26-14.74v-4.77
		C665.95,356.05,664.27,354.37,662.21,354.37"/>
	<path d="M662.21,402.69h-7.46c-2.06,0-3.73,1.67-3.73,3.73v5.8h4.98v-4.98h4.98v3.94c0,3.53-2.38,8.05-4.69,12.42
		c-2.59,4.91-5.27,9.98-5.27,14.74v4.56h14.93v-4.56H656c0.18-3.47,2.46-8.22,4.68-12.42c2.59-4.91,5.26-9.98,5.26-14.74v-4.77
		C665.95,404.36,664.27,402.69,662.21,402.69"/>
	<path d="M344.26,402.69H334.1v40.23h10.16c2.97,0,5.39-2.42,5.39-5.39v-29.45C349.65,405.11,347.24,402.69,344.26,402.69
		 M344.68,437.94c0,0.23-0.18,0.41-0.41,0.41h-5.18v-31.11h5.18c0.23,0,0.41,0.18,0.41,0.41V437.94z"/>
	<polygon points="310.82,354.37 310.82,394.6 324.51,394.6 324.51,390.04 315.8,390.04 315.8,374.69 321.61,374.69 321.61,370.13 
		315.8,370.13 315.8,358.93 324.51,358.93 324.51,354.37 	"/>
	<polygon points="309.79,402.69 309.79,407.25 315.18,407.25 315.18,442.92 320.15,442.92 320.15,407.25 325.55,407.25 
		325.55,402.69 	"/>
	<path d="M345.82,354.37h-7.88c-2.06,0-3.73,1.67-3.73,3.73v7.05c0,2.98,2.5,6.31,5.39,10.16c2.1,2.8,4.98,6.64,4.98,8.5v6.22h-5.39
		v-6.22h-4.98v7.05c0,2.06,1.67,3.73,3.73,3.73h7.88c2.06,0,3.73-1.67,3.73-3.73v-7.05c0-3.52-2.9-7.39-5.97-11.49
		c-1.75-2.33-4.4-5.86-4.4-7.18v-6.22h5.39v6.22h4.98v-7.05C349.55,356.05,347.88,354.37,345.82,354.37"/>
	<path d="M666.91,693.39l-9.38-55c-0.21-1.25-1.3-2.16-2.57-2.16h-18.18c-1.44,0-2.6,1.17-2.6,2.6v134.89c0,1.44,1.17,2.6,2.6,2.6
		h13.01c1.44,0,2.6-1.17,2.6-2.6v-51.39c0-3.19,4.63-3.58,5.17-0.44l8.91,52.26c0.21,1.25,1.3,2.16,2.56,2.16h18.65
		c1.44,0,2.6-1.17,2.6-2.6V638.83c0-1.44-1.16-2.6-2.6-2.6h-13.01c-1.44,0-2.6,1.17-2.6,2.6v54.12
		C672.08,696.14,667.45,696.53,666.91,693.39"/>
	<path d="M419.49,713.15c-0.17-0.95,0.22-1.89,0.97-2.51c4.67-3.83,7.81-9.62,7.81-17.63v-4.95v-28.3
		c0-16.45-13.26-23.54-25.79-23.54h-5.97h-17.01c-1.44,0-2.61,1.17-2.61,2.6v134.89c0,1.44,1.17,2.6,2.61,2.6h14.41
		c1.44,0,2.6-1.16,2.6-2.6v-57.16h2.43c1.26,0,2.34,0.9,2.56,2.14l10.07,55.48c0.23,1.24,1.3,2.14,2.56,2.14h13.69
		c1.62,0,2.85-1.47,2.56-3.07L419.49,713.15z M396.52,699.01v-45.24c0-1.44,1.17-2.6,2.6-2.6h3.44c2.96,0,6.09,1.66,6.09,5.56v31.34
		v7.99c0,3.89-3.13,5.56-6.09,5.56h-3.44C397.69,701.61,396.52,700.45,396.52,699.01"/>
	<path d="M622.9,773.71v-10.2c0-1.44-1.17-2.6-2.6-2.6h-20.94c-1.44,0-2.6-1.16-2.6-2.6v-43.59c0-1.44,1.17-2.6,2.6-2.6h15.34
		c1.44,0,2.6-1.17,2.6-2.6v-10.2c0-1.44-1.17-2.61-2.6-2.61h-15.34c-1.44,0-2.6-1.16-2.6-2.6v-39.86c0-1.44,1.17-2.6,2.6-2.6h20.94
		c1.44,0,2.6-1.17,2.6-2.6v-10.2c0-1.44-1.17-2.6-2.6-2.6h-40.56c-1.44,0-2.6,1.16-2.6,2.6v134.89c0,1.44,1.17,2.6,2.6,2.6h40.56
		C621.74,776.31,622.9,775.15,622.9,773.71"/>
	<path d="M458.33,638.47l-18.54,134.88c-0.22,1.57,1,2.96,2.58,2.96h13.76c1.32,0,2.44-0.99,2.59-2.31l2.67-23.48
		c0.15-1.32,1.26-2.31,2.59-2.31h11.27c1.32,0,2.44,0.99,2.59,2.31l2.67,23.48c0.15,1.32,1.26,2.31,2.59,2.31h13.76
		c1.58,0,2.79-1.39,2.58-2.96l-18.54-134.88c-0.18-1.29-1.28-2.25-2.58-2.25h-17.4C459.61,636.22,458.51,637.18,458.33,638.47
		 M463.74,729.91l3.29-28.89c0.35-3.08,4.82-3.08,5.17,0l3.29,28.89c0.17,1.54-1.03,2.9-2.59,2.9h-6.57
		C464.77,732.81,463.56,731.46,463.74,729.91"/>
	<path d="M347.53,688.08l17.41-48.37c0.61-1.7-0.65-3.49-2.45-3.49h-13.92c-1.13,0-2.14,0.73-2.48,1.81l-11.61,36.38
		c-0.91,2.83-5.08,2.18-5.08-0.79V638.9c0-1.44-1.16-2.6-2.6-2.6h-14.41c-1.44,0-2.6,1.17-2.6,2.6v134.81c0,1.44,1.17,2.6,2.6,2.6
		h14.41c1.44,0,2.6-1.17,2.6-2.6v-36.29c0-0.55,0.1-1.1,0.28-1.62l2.5-6.93c0.88-2.44,4.4-2.23,4.98,0.3l10.46,45.13
		c0.27,1.18,1.33,2.02,2.54,2.02h14.8c1.68,0,2.92-1.57,2.53-3.21l-20.04-83.54C347.33,689.07,347.36,688.55,347.53,688.08"/>
	<path d="M546.17,688.08l17.41-48.37c0.61-1.7-0.65-3.49-2.45-3.49h-13.92c-1.13,0-2.14,0.73-2.48,1.81l-11.61,36.38
		c-0.91,2.83-5.08,2.18-5.08-0.79V638.9c0-1.44-1.17-2.6-2.6-2.6h-14.41c-1.44,0-2.6,1.17-2.6,2.6v134.81c0,1.44,1.17,2.6,2.6,2.6
		h14.41c1.44,0,2.6-1.17,2.6-2.6v-36.29c0-0.55,0.1-1.1,0.28-1.62l2.5-6.93c0.88-2.44,4.4-2.23,4.98,0.3l10.47,45.13
		c0.27,1.18,1.33,2.02,2.54,2.02h14.8c1.69,0,2.93-1.57,2.53-3.21l-20.04-83.54C545.97,689.07,546,688.55,546.17,688.08"/>
	<path d="M444.25,793.81h-9.47c-1.51,0-2.74,1.23-2.74,2.74v39.39c0,1.51,1.23,2.74,2.74,2.74h9.47c1.51,0,2.74-1.23,2.74-2.74
		v-8.48h-2.49v8.48c0,0.14-0.11,0.25-0.25,0.25h-9.47c-0.14,0-0.25-0.11-0.25-0.25v-39.39c0-0.14,0.11-0.25,0.25-0.25h9.47
		c0.14,0,0.25,0.11,0.25,0.25v8.48h2.49v-8.48C446.99,795.05,445.76,793.81,444.25,793.81"/>
	<path d="M393.21,793.81h-10.47v44.87h10.47c2.61,0,4.74-2.12,4.74-4.73v-35.4C397.95,795.94,395.83,793.81,393.21,793.81
		 M395.46,833.95c0,1.24-1.01,2.24-2.24,2.24h-7.98v-39.89h7.98c1.23,0,2.24,1.01,2.24,2.24V833.95z"/>
	<rect x="481.82" y="793.81" width="2.49" height="44.87"/>
	<polygon points="531.36,793.81 531.36,831.2 521.09,793.81 518.4,793.81 518.4,838.69 520.89,838.69 520.89,801.3 531.17,838.69 
		533.85,838.69 533.85,793.81 	"/>
	<path d="M506.22,793.81h-9.72c-1.51,0-2.74,1.23-2.74,2.74v39.39c0,1.51,1.23,2.74,2.74,2.74h9.72c1.51,0,2.74-1.23,2.74-2.74
		v-39.39C508.96,795.05,507.73,793.81,506.22,793.81 M506.47,835.95c0,0.14-0.11,0.25-0.25,0.25h-9.72c-0.14,0-0.25-0.11-0.25-0.25
		v-39.39c0-0.14,0.11-0.25,0.25-0.25h9.72c0.14,0,0.25,0.11,0.25,0.25V835.95z"/>
	<path d="M370.67,793.81h-9.72c-1.51,0-2.74,1.23-2.74,2.74v39.39c0,1.51,1.23,2.74,2.74,2.74h9.72c1.51,0,2.74-1.23,2.74-2.74
		v-39.39C373.41,795.05,372.18,793.81,370.67,793.81 M370.92,835.95c0,0.14-0.11,0.25-0.25,0.25h-9.72c-0.14,0-0.25-0.11-0.25-0.25
		v-39.39c0-0.14,0.11-0.25,0.25-0.25h9.72c0.14,0,0.25,0.11,0.25,0.25V835.95z"/>
	<polygon points="456.43,793.81 456.43,796.31 463.16,796.31 463.16,838.69 465.65,838.69 465.65,796.31 472.38,796.31 
		472.38,793.81 	"/>
	<path d="M420.1,835.95c0,0.14-0.11,0.25-0.25,0.25h-9.72c-0.14,0-0.25-0.11-0.25-0.25v-42.13h-2.49v42.13
		c0,1.51,1.23,2.74,2.74,2.74h9.72c1.51,0,2.74-1.23,2.74-2.74v-42.13h-2.49V835.95z"/>
	<path d="M321.73,793.82h-12.21v44.87h2.49v-17.45h9.72c1.51,0,2.74-1.23,2.74-2.74v-21.94
		C324.47,795.04,323.24,793.82,321.73,793.82 M321.98,818.49c0,0.14-0.11,0.25-0.25,0.25h-9.72v-22.44h9.72
		c0.14,0,0.25,0.11,0.25,0.25V818.49z"/>
	<path d="M346.12,819.24c1.51,0,2.74-1.23,2.74-2.74v-19.94c0-1.51-1.23-2.74-2.74-2.74h-12.22v44.87h2.49v-42.38h9.72
		c0.14,0,0.25,0.12,0.25,0.25v19.94c0,0.14-0.11,0.25-0.25,0.25h-7.39l7.95,21.94h2.65l-7.05-19.45H346.12z"/>
	<path d="M649.04,793.81h-10.47v44.87h10.47c2.61,0,4.74-2.12,4.74-4.73v-35.4C653.78,795.94,651.66,793.81,649.04,793.81
		 M651.29,833.95c0,1.24-1.01,2.24-2.24,2.24h-7.98v-39.89h7.98c1.24,0,2.24,1.01,2.24,2.24V833.95z"/>
	<rect x="663.16" y="793.81" width="2.49" height="44.87"/>
	<path d="M687.55,793.81h-9.72c-1.51,0-2.74,1.23-2.74,2.74v39.39c0,1.51,1.23,2.74,2.74,2.74h9.72c1.51,0,2.74-1.23,2.74-2.74
		v-39.39C690.29,795.05,689.07,793.81,687.55,793.81 M687.8,835.95c0,0.14-0.11,0.25-0.25,0.25h-9.72c-0.14,0-0.25-0.11-0.25-0.25
		v-39.39c0-0.14,0.11-0.25,0.25-0.25h9.72c0.14,0,0.25,0.11,0.25,0.25V835.95z"/>
	<polygon points="588.54,793.81 588.54,796.31 595.27,796.31 595.27,838.69 597.76,838.69 597.76,796.31 604.49,796.31 
		604.49,793.81 	"/>
	<path d="M626.64,835.95c0,0.14-0.11,0.25-0.25,0.25h-9.72c-0.14,0-0.25-0.11-0.25-0.25v-42.13h-2.49v42.13
		c0,1.51,1.23,2.74,2.74,2.74h9.72c1.51,0,2.74-1.23,2.74-2.74v-42.13h-2.49V835.95z"/>
	<path d="M576.36,793.81h-9.47c-1.51,0-2.74,1.23-2.74,2.74v8.48c0,3,2.98,6.97,6.13,11.17c2.97,3.96,6.34,8.45,6.34,11.27v8.48
		c0,0.14-0.11,0.25-0.25,0.25h-9.47c-0.14,0-0.25-0.11-0.25-0.25v-8.48h-2.49v8.48c0,1.51,1.23,2.74,2.74,2.74h9.47
		c1.51,0,2.74-1.23,2.74-2.74v-8.48c0-3.65-3.47-8.28-6.83-12.76c-2.77-3.69-5.63-7.51-5.63-9.67v-8.48c0-0.14,0.11-0.25,0.25-0.25
		h9.47c0.14,0,0.25,0.11,0.25,0.25v8.48h2.49v-8.48C579.1,795.05,577.87,793.81,576.36,793.81"/>
	<path d="M528.82,226.41c-14.47-9.6-31.07-16.94-47.88-21.39c3.19-2.05,6.29-4.15,9.31-6.21c1.45-0.99,2.89-1.97,4.32-2.92
		c12.59-8.45,30.31-17.11,43.22-10.34c8.97,4.7,13.06,15.68,13.9,24.39c0.42,4.43,0.48,9.04,0.23,13.78
		C544.38,223.92,536.61,224.85,528.82,226.41 M458.67,259.82c-11.79,10.03-20.34,20.95-25.38,32.28c-2.4-3.82-4.91-7.52-7.35-11.1
		c-0.99-1.45-1.97-2.89-2.92-4.32c-8.45-12.59-17.11-30.3-10.34-43.22c4.7-8.97,15.68-13.06,24.39-13.9
		c0.84-0.08,1.7-0.12,2.56-0.18c2.15,0.07,4.26,0,6.34-0.21c18.44,0.09,39.11,5.47,57.52,14.58
		C487.09,239.99,471.51,248.89,458.67,259.82 M604.91,248.14c-6.26-11.95-18.76-20.38-34.04-23.22c0.31-5.74,0.24-11.37-0.28-16.8
		c-1.7-17.69-10.67-32.42-23.99-39.39c-17.02-8.91-38.08-5.08-62.62,11.4c-1.47,0.98-2.94,1.98-4.42,2.99
		c-11.31,7.69-22.94,15.59-34.7,17.06c-1.95,0.01-3.88,0.08-5.79,0.19c-0.09-0.01-0.17,0-0.26-0.01l0,0.02
		c-1.2,0.07-2.39,0.16-3.57,0.27c-17.69,1.7-32.42,10.67-39.4,24c-8.91,17.01-5.07,38.08,11.4,62.61c0.99,1.47,1.98,2.94,2.99,4.42
		c9.01,13.24,18.32,26.93,17.24,40.75l18.94,1.48c0.56-7.12-0.52-13.84-2.57-20.22l3.18,0.21c0.85-13.13,9.36-27.2,23.95-39.61
		c21.06-17.92,51.5-29.86,78.29-31.44c-2.76,12.69-7.46,25.53-13.72,37.28c2.83,0.8,5.65,1.64,8.38,2.76
		c2.78,1.15,5.35,2.47,7.68,4.39c0.4,0.33,0.74,0.72,1.08,1.09c7.42-14.05,12.84-29.37,15.81-44.55
		c7.61,1.68,15.72,5.75,19.58,13.13c6.77,12.92-1.89,30.63-10.34,43.22c-0.96,1.43-1.94,2.87-2.92,4.32
		c-10.35,15.21-22.08,32.45-20.48,52.92l18.94-1.48c-1.08-13.82,8.23-27.51,17.24-40.75c1.01-1.48,2.01-2.95,2.99-4.42
		C609.99,286.23,613.82,265.16,604.91,248.14"/>
	<path d="M468.7,526.61L468.7,526.61c5.4,0,9.77-4.38,9.77-9.77v-35.98l-19.55-19.61v55.58
		C458.93,522.24,463.31,526.61,468.7,526.61"/>
	<path d="M421.42,476.43h-0.05c-3.4,0-6.15-2.74-6.15-6.14c0.01-41.4,0.02-90.92,0.03-124c0-5.41-4.38-9.79-9.8-9.79
		c-5.41,0-9.8,4.39-9.8,9.8l0.01,123.99c0,14.21,11.52,25.73,25.74,25.73c14.21,0,25.73-11.52,25.74-25.73l0.01-21.18l-19.62-19.62
		c0.02,9.34,0.04,13.84,0.05,40.79C427.58,473.68,424.83,476.43,421.42,476.43"/>
	<path d="M573.36,342.71c-0.18-4.37-0.32-8.65-0.74-12.67c-1.71-16.3-6.45-29.36-14.5-39.21c-2.02-2.47-4.18-4.7-6.6-6.85
		c-9.43-8.4-22.23-13.61-37.98-15.72c-7.83-1.05-17.1-1.43-25.31-0.49c-8.03,0.91-15.26,2.66-21.76,5.09
		c-6.5,2.43-12.43,5.36-17.87,8.99c-5.37,3.58-10.27,7.78-14.04,12.81c-1.94,2.59-3.61,5.27-4.88,8.53
		c-1.28,3.3-1.77,7.03-2.11,11.34c-0.12,1.53-0.15,65.12-0.15,90.06c0,6.34,2.52,12.41,7,16.89l46.74,46.73
		c5.96,5.97,9.31,14.07,9.31,22.51v57.04c0,5.4,4.38,9.78,9.78,9.78s9.77-4.38,9.77-9.78v-65.17c0-8.45-3.36-16.55-9.33-22.53
		l-46.7-46.71c-4.48-4.48-7-10.56-7-16.9c0.01-16.66,0.04-40.13,0.06-51.08c0-2.36,2.65-3.75,4.59-2.41
		c2.02,1.39,4.28,2.83,5.85,3.76c0.9,0.52,1.44,1.49,1.44,2.52v55.32l19.55,19.6V357.6c0-1.79,1.59-3.18,3.36-2.9
		c1.97,0.32,3.94,0.56,5.92,0.75c1.52,0.14,2.7,1.39,2.7,2.92v77.75l19.55,19.5v-98.36c0-1.43,1.04-2.63,2.45-2.89
		c1.99-0.36,3.97-0.78,5.93-1.27c1.84-0.46,3.62,0.95,3.62,2.84v68.98l19.55-19.55c0,0-0.01-68.48-0.04-71.6
		c-0.02-2.43-0.25-5.32-3.3-5.93c-1.15-0.23-2.35,0.02-3.42,0.5c-25.65,11.62-56.84,10.67-81.06-4.16
		c-18.95-11.6,7.63-27.97,18.18-32.14c22.49-8.87,57.16-8.29,72.65,13.29c3.73,5.2,6.2,11.61,7.62,19.24
		c0.7,3.76,1.05,7.92,1.26,12.14c0.06,1.3,0.16,37.41,0.21,59.68c0.01,6.35-2.5,12.44-6.99,16.93l-17.66,17.66
		c-4.48,4.48-7,10.56-7,16.89v69.32c0,5.4,4.38,9.77,9.77,9.77c5.4,0,9.78-4.37,9.78-9.77v-61.23c0-6.34,2.52-12.41,7-16.89
		l17.77-17.76c4.47-4.47,6.99-10.54,7-16.86C573.34,384.98,573.38,343.3,573.36,342.71"/>
	<path d="M585.41,346.31l0.01,124.05c0,3.36-2.72,6.08-6.08,6.08h-0.01c-3.35,0-6.07-2.71-6.07-6.06
		c0.01-26.95,0.03-31.52,0.05-40.87l-19.62,19.62l0.01,21.28c0,14.16,11.48,25.63,25.64,25.63c14.16,0,25.64-11.47,25.64-25.63
		c0.01-41.37,0.02-91,0.03-124.1c0-5.41-4.38-9.79-9.8-9.79C589.8,336.51,585.41,340.9,585.41,346.31"/>
	<path d="M528.04,311.8c0,15.52-12.58,28.09-28.09,28.09c-15.52,0-28.09-12.58-28.09-28.09c0-15.52,12.58-28.09,28.09-28.09
		C515.46,283.71,528.04,296.29,528.04,311.8"/>
</g>
</svg>
